<svg width="641" height="450" viewBox="0 0 641 450" fill="none" xmlns="http://www.w3.org/2000/svg">
<g clip-path="url(#clip0_32_41)">
<path opacity="0.48" d="M602.529 16.6647H90.2119C83.0279 16.6647 77.2041 22.0892 77.2041 28.7807V325.726C77.2041 332.417 83.0279 337.842 90.2119 337.842H602.529C609.713 337.842 615.536 332.417 615.536 325.726V28.7807C615.536 22.0892 609.713 16.6647 602.529 16.6647Z" fill="#1E88E5"/>
<path opacity="0.18" d="M604.883 361.289C604.491 371.807 601.904 382.516 595.581 391.234C587.617 402.213 574.682 409.008 562.154 415.398L526.633 433.606C511.067 441.593 494.659 449.77 476.913 450C464.356 450.176 452.205 446.318 440.128 443.082C383.722 427.92 324.308 425.795 265.998 429.626C236.131 431.589 206.41 435.041 176.819 439.197C153.143 442.473 124.73 453.371 103.379 440.47C80.1254 426.391 65.8532 403.593 52.7146 381.46C41.2765 362.25 29.6785 342.566 25.8998 320.893C20.0862 287.401 34.0096 253.002 55.7958 225.792C62.3477 217.666 69.5012 209.976 77.2041 202.778V325.739C77.204 328.959 78.5722 332.048 81.0095 334.331C83.4469 336.614 86.7553 337.905 90.2118 337.923H602.514C604.338 345.59 605.133 353.439 604.883 361.289Z" fill="#1E88E5"/>
<path opacity="0.18" d="M413.473 16.6782H276.492C281.647 13.0268 287.248 9.95509 293.177 7.52685C304.004 3.12716 315.806 1.16423 327.578 0.379051C357.198 -1.61096 386.905 4.48091 413.473 16.6782Z" fill="#1E88E5"/>
<path d="M288.133 297.419C289.468 299.067 291.072 300.51 292.886 301.697C295.583 303.052 298.552 303.872 301.606 304.106L347.998 310.618C348.459 310.647 348.905 310.787 349.291 311.024C349.549 311.284 349.743 311.593 349.861 311.929C349.979 312.266 350.018 312.622 349.975 312.973C350.19 321.064 349.017 329.135 346.501 336.881C346.369 337.514 346.04 338.098 345.556 338.559C344.93 338.954 344.19 339.162 343.434 339.155C327.825 340.387 312.143 339.994 296.49 339.602C293.858 339.636 291.232 339.368 288.671 338.803C284.311 337.666 280.75 334.891 277.465 332.034C270.416 325.929 241.887 301.385 240.157 298.055C237.864 293.284 236.016 288.338 234.634 283.272C233.181 278.399 243.805 277.79 243.587 272.726C243.434 269.226 243.885 265.724 244.924 262.357C245.698 259.353 247.301 256.59 249.575 254.343C251.174 252.989 248.703 243.81 250.912 243.702C253.47 251.825 265.039 268.07 270.068 275.028C275.657 282.786 281.687 290.26 288.133 297.419Z" fill="#1E88E5"/>
<path d="M288.133 297.419C289.468 299.067 291.072 300.51 292.886 301.697C295.583 303.052 298.552 303.872 301.606 304.106L347.998 310.618C348.459 310.647 348.905 310.787 349.291 311.024C349.549 311.284 349.743 311.593 349.861 311.929C349.979 312.266 350.018 312.622 349.975 312.973C350.19 321.064 349.017 329.135 346.501 336.881C346.369 337.514 346.04 338.098 345.556 338.559C344.93 338.954 344.19 339.162 343.434 339.155C327.825 340.387 312.143 339.994 296.49 339.602C293.858 339.636 291.232 339.368 288.671 338.803C284.311 337.666 280.75 334.891 277.465 332.034C270.416 325.929 241.887 301.385 240.157 298.055C237.864 293.284 236.016 288.338 234.634 283.272C233.181 278.399 243.805 277.79 243.587 272.726C243.434 269.226 243.885 265.724 244.924 262.357C245.698 259.353 247.301 256.59 249.575 254.343C251.174 252.989 248.703 243.81 250.912 243.702C253.47 251.825 265.039 268.07 270.068 275.028C275.657 282.786 281.687 290.26 288.133 297.419Z" fill="url(#paint0_linear_32_41)"/>
<path d="M170.744 228.838C167.619 231.432 164.705 234.237 162.023 237.231C155.599 244.582 151.326 253.327 147.344 262.045C136.749 285.249 127.52 310.063 130.267 335.148C130.319 336.657 130.757 338.133 131.546 339.453C132.797 340.946 134.554 342.001 136.531 342.445C141.632 343.961 147.083 344.028 152.518 344.069C173.461 344.245 194.434 344.421 215.362 343.473C218.603 343.325 222.033 343.094 224.722 341.389C226.686 339.988 228.253 338.162 229.286 336.068C234.91 326.213 236.553 314.815 240.913 304.445C246.726 290.907 262.714 278.602 259.342 264.333C244.924 203.753 177.342 223.247 170.744 228.838Z" fill="#1E88E5"/>
<path d="M170.744 228.838C167.619 231.432 164.705 234.237 162.023 237.231C155.599 244.582 151.326 253.327 147.344 262.045C136.749 285.249 127.52 310.063 130.267 335.148C130.319 336.657 130.757 338.133 131.546 339.453C132.797 340.946 134.554 342.001 136.531 342.445C141.632 343.961 147.083 344.028 152.518 344.069C173.461 344.245 194.434 344.421 215.362 343.473C218.603 343.325 222.033 343.094 224.722 341.389C226.686 339.988 228.253 338.162 229.286 336.068C234.91 326.213 236.553 314.815 240.913 304.445C246.726 290.907 262.714 278.602 259.342 264.333C244.924 203.753 177.342 223.247 170.744 228.838Z" fill="url(#paint1_linear_32_41)"/>
<path d="M265.388 178.654C262.932 189.769 260.359 201.181 253.761 210.752C251.355 214.616 247.876 217.806 243.689 219.984C239.43 221.974 234.024 222.245 230.042 219.808C228.05 218.604 225.87 216.708 223.705 217.602C222.135 218.265 221.627 220.079 221.409 221.663C220.863 225.554 220.922 229.498 221.583 233.373C221.853 234.464 221.921 235.59 221.786 236.703C221.505 237.733 220.909 238.665 220.07 239.385C219.232 240.106 218.187 240.585 217.063 240.764C214.814 241.07 212.519 240.735 210.479 239.803C207.305 238.481 204.528 236.455 202.389 233.901C200.251 231.348 198.817 228.345 198.213 225.156C197.908 223.002 197.762 220.83 197.776 218.658C197.5 209.019 195.858 199.421 196.192 189.796C196.527 180.171 199.099 170.153 206.119 163.046C210.173 159.176 214.989 156.069 220.304 153.894C228.225 150.375 237.061 147.897 245.724 149.183C249.171 149.69 252.459 150.887 255.362 152.691C258.264 154.496 260.713 156.864 262.539 159.634C267.074 166.119 267.088 170.952 265.388 178.654Z" fill="#FFDAD2"/>
<path d="M287.029 154.165C287.619 149.648 286.718 145.07 284.446 141.041C282.175 137.012 278.64 133.723 274.312 131.612C270.46 129.825 266.173 129.067 262.016 128.038C252.278 125.601 242.933 121.567 232.948 120.7C222.964 119.834 211.482 123.096 207.035 131.53C206.221 133.074 205.421 134.942 203.634 135.348C202.657 135.446 201.669 135.363 200.727 135.104C194.056 134.008 188.053 139.314 185.045 144.96C180.191 154.097 179.944 164.751 181.005 174.891C181.978 184.272 184.551 194.412 192.632 200.125C193.431 200.693 194.608 201.208 195.378 200.599C195.731 200.255 195.951 199.812 196.003 199.34C196.816 195.783 197.119 192.141 196.905 188.51C196.745 185.802 196.28 182.932 197.035 180.265C197.791 177.598 200.218 175.067 203.183 175.148C205.93 175.148 208.139 177.531 208.822 180.022C209.309 182.558 209.205 185.162 208.517 187.657C208.953 188.672 210.479 187.454 210.741 186.398C212.746 177.896 213.197 168.379 219.534 162.03C220.823 163.273 221.762 164.794 222.266 166.457C223.213 165.543 224.418 164.896 225.741 164.589C227.065 164.283 228.454 164.33 229.751 164.724C231.59 165.47 233.28 166.5 234.751 167.77C250.185 178.993 283.788 175.663 287.029 154.165Z" fill="#3F3D56"/>
<path d="M175.191 242.7C170.308 246.003 167.924 251.811 167.779 257.416C167.633 263.02 173.999 298.583 180.002 308.682C184.653 316.534 194.347 337.03 209.069 342.688C213.43 344.367 277.887 343.663 307.797 340.644C307.609 334.051 307.26 327.459 306.795 320.866C306.838 319.996 306.556 319.139 305.995 318.443C305.24 317.712 304.164 312.933 303.089 312.933C285.648 313 268.062 317.969 250.622 318.348C248.089 318.5 245.545 318.359 243.049 317.928C241.007 317.453 239.048 316.706 237.236 315.708C223.778 308.614 216.336 294.684 211.075 281.133C207.049 270.682 203.808 259.866 197.995 250.105C195.931 246.626 194.085 243.242 190.016 241.712C185.234 239.912 179.624 239.708 175.191 242.7Z" fill="#1E88E5"/>
<path d="M175.191 242.7C170.308 246.003 167.924 251.811 167.779 257.416C167.633 263.02 173.999 298.583 180.002 308.682C184.653 316.534 194.347 337.03 209.069 342.688C213.43 344.367 277.887 343.663 307.797 340.644C307.609 334.051 307.26 327.459 306.795 320.866C306.838 319.996 306.556 319.139 305.995 318.443C305.24 317.712 304.164 312.933 303.089 312.933C285.648 313 268.062 317.969 250.622 318.348C248.089 318.5 245.545 318.359 243.049 317.928C241.007 317.453 239.048 316.706 237.236 315.708C223.778 308.614 216.336 294.684 211.075 281.133C207.049 270.682 203.808 259.866 197.995 250.105C195.931 246.626 194.085 243.242 190.016 241.712C185.234 239.912 179.624 239.708 175.191 242.7Z" fill="url(#paint2_linear_32_41)"/>
<path d="M305.239 311.66C314.294 310.862 324.351 312.743 330.092 319.309C330.697 319.908 331.092 320.663 331.226 321.475C331.22 322.206 330.977 322.919 330.528 323.519C327.142 328.758 319.788 330.004 313.611 332.075C310.398 333.147 307.33 334.565 304.469 336.299C302.859 337.488 300.997 338.346 299.004 338.816C294.644 339.426 291.025 335.798 289.049 332.17C286.782 328.108 283.235 319.769 287.595 315.925C291.156 312.879 300.763 312.039 305.239 311.66Z" fill="#FFDAD2"/>
<path d="M380.219 309.576C381.831 310.429 383.217 311.609 384.274 313.028C384.791 313.745 385.097 314.576 385.163 315.438C385.23 316.3 385.053 317.163 384.652 317.942C383.967 318.901 383.032 319.683 381.934 320.216C373.897 324.67 364.043 325.469 355.904 329.692C354.235 330.823 352.32 331.599 350.294 331.967C349.104 331.991 347.923 331.759 346.844 331.29C345.766 330.82 344.818 330.125 344.074 329.259C342.592 327.535 341.454 325.577 340.717 323.479C331.197 300.194 366.529 301.453 380.219 309.576Z" fill="#FFDAD2"/>
<path d="M149.902 299.179H187.559V327.986C187.559 330.679 186.411 333.262 184.367 335.166C182.322 337.07 179.55 338.14 176.659 338.14H160.803C157.912 338.14 155.139 337.07 153.095 335.166C151.051 333.262 149.902 330.679 149.902 327.986V299.179Z" fill="white"/>
<path d="M185.016 306.164H196.425C198.834 306.164 201.144 307.055 202.848 308.642C204.552 310.229 205.509 312.381 205.509 314.625V318.131C205.509 320.375 204.552 322.527 202.848 324.114C201.144 325.701 198.834 326.592 196.425 326.592H185.016V306.164Z" stroke="white" stroke-width="3.03781" stroke-miterlimit="10"/>
<path d="M608.342 337.517H98.2345C93.7716 337.517 90.1537 340.884 90.1537 345.037C90.1537 349.19 93.7716 352.557 98.2345 352.557H608.342C612.805 352.557 616.423 349.19 616.423 345.037C616.423 340.884 612.805 337.517 608.342 337.517Z" fill="#1E88E5"/>
<path d="M514.57 352.787H226.234V445.939H514.57V352.787Z" fill="#1E88E5"/>
<path d="M228.196 352.787H114.934V445.939H228.196V352.787Z" fill="#1E88E5"/>
<path d="M514.584 352.787H228.138V445.939H514.584V352.787Z" fill="url(#paint3_linear_32_41)"/>
<path d="M228.196 352.787H114.934V445.939H228.196V352.787Z" fill="url(#paint4_linear_32_41)"/>
<path opacity="0.18" d="M615.522 28.7943V88.0885H77.2041V28.7943C77.204 25.5746 78.5722 22.4858 81.0095 20.2029C83.4469 17.9199 86.7553 16.6284 90.2119 16.6105H602.514C605.971 16.6284 609.279 17.9199 611.716 20.2029C614.154 22.4858 615.522 25.5746 615.522 28.7943Z" fill="#1E88E5"/>
<path d="M309.556 337.26H496.228C501.462 337.26 505.704 333.308 505.704 328.433C505.704 323.559 501.462 319.607 496.228 319.607H309.556C304.323 319.607 300.08 323.559 300.08 328.433C300.08 333.308 304.323 337.26 309.556 337.26Z" fill="#1E88E5"/>
<path d="M309.556 337.26H496.228C501.462 337.26 505.704 333.308 505.704 328.433C505.704 323.559 501.462 319.607 496.228 319.607H309.556C304.323 319.607 300.08 323.559 300.08 328.433C300.08 333.308 304.323 337.26 309.556 337.26Z" fill="url(#paint5_linear_32_41)"/>
<path d="M374.29 337.287H517.549L555.337 248.034C555.839 246.845 556.021 245.559 555.868 244.289C555.715 243.019 555.232 241.803 554.46 240.747C553.688 239.69 552.651 238.825 551.439 238.227C550.226 237.628 548.875 237.314 547.504 237.312H435.084C429.646 237.322 424.337 238.852 419.843 241.705C415.35 244.558 411.88 248.602 409.883 253.314L374.29 337.287Z" fill="#1E88E5"/>
<path d="M381.571 337.382H517.637L553.521 252.596C553.999 251.467 554.174 250.245 554.03 249.038C553.886 247.831 553.427 246.675 552.693 245.671C551.959 244.667 550.973 243.846 549.82 243.279C548.667 242.711 547.383 242.415 546.079 242.416H439.314C434.142 242.414 429.089 243.861 424.812 246.57C420.535 249.279 417.232 253.124 415.333 257.605L381.571 337.382Z" fill="#1E88E5"/>
<path d="M381.571 337.382H517.637L553.521 252.596C553.999 251.467 554.174 250.245 554.03 249.038C553.886 247.831 553.427 246.675 552.693 245.671C551.959 244.667 550.973 243.846 549.82 243.279C548.667 242.711 547.383 242.415 546.079 242.416H439.314C434.142 242.414 429.089 243.861 424.812 246.57C420.535 249.279 417.232 253.124 415.333 257.605L381.571 337.382Z" fill="url(#paint6_linear_32_41)"/>
<path opacity="0.51" d="M535.615 209.303H334.176V219.863H535.615V209.303Z" fill="white"/>
<path d="M477.378 191.231H334.176V201.79H477.378V191.231Z" fill="white"/>
<path d="M592.82 191.231H496.955V201.79H592.82V191.231Z" fill="white"/>
<path d="M592.486 124.383H445.098V133.764H592.486V124.383Z" fill="white"/>
<path opacity="0.51" d="M571.906 141.047H414.229V150.429H571.906V141.047Z" fill="white"/>
<path d="M433.849 124.383H336.909V133.764H433.849V124.383Z" fill="white"/>
<path d="M592.486 157.211H379.435V166.592H592.486V157.211Z" fill="white"/>
<path opacity="0.51" d="M368.185 157.211H336.909V166.592H368.185V157.211Z" fill="white"/>
<path opacity="0.51" d="M592.486 173.876H451.856V183.257H592.486V173.876Z" fill="white"/>
<path d="M433.849 173.876H336.909V183.257H433.849V173.876Z" fill="white"/>
<path d="M399.244 140.655H336.909V150.036H399.244V140.655Z" fill="white"/>
<path d="M538.58 92.7996H391.192V102.181H538.58V92.7996Z" fill="white"/>
<path opacity="0.51" d="M518 109.464H360.323V118.846H518V109.464Z" fill="white"/>
<path d="M379.958 92.7996H283.017V102.181H379.958V92.7996Z" fill="white"/>
<path d="M537.272 73.3732H389.884V82.7547H537.272V73.3732Z" fill="white"/>
<path d="M378.65 55.7474H281.709V65.1289H378.65V55.7474Z" fill="white"/>
<path d="M378.65 39.6649H281.709V49.0464H378.65V39.6649Z" fill="white"/>
<path d="M345.353 109.072H283.017V118.453H345.353V109.072Z" fill="white"/>
</g>
<defs>
<linearGradient id="paint0_linear_32_41" x1="241.93" y1="281.377" x2="313.576" y2="310.69" gradientUnits="userSpaceOnUse">
<stop offset="0.01"/>
<stop offset="0.12" stop-opacity="0.75"/>
<stop offset="1" stop-opacity="0"/>
</linearGradient>
<linearGradient id="paint1_linear_32_41" x1="16892.8" y1="34128.1" x2="15118.4" y2="22799.4" gradientUnits="userSpaceOnUse">
<stop offset="0.01"/>
<stop offset="0.12" stop-opacity="0.75"/>
<stop offset="1" stop-opacity="0"/>
</linearGradient>
<linearGradient id="paint2_linear_32_41" x1="18981" y1="28196.4" x2="21046.7" y2="21888.2" gradientUnits="userSpaceOnUse">
<stop offset="0.01"/>
<stop offset="0.12" stop-opacity="0.75"/>
<stop offset="1" stop-opacity="0"/>
</linearGradient>
<linearGradient id="paint3_linear_32_41" x1="75557.9" y1="20203.4" x2="74151.1" y2="34738.2" gradientUnits="userSpaceOnUse">
<stop offset="0.01"/>
<stop offset="0.12" stop-opacity="0.75"/>
<stop offset="1" stop-opacity="0"/>
</linearGradient>
<linearGradient id="paint4_linear_32_41" x1="9777.31" y1="20842.4" x2="13018.2" y2="39529.9" gradientUnits="userSpaceOnUse">
<stop offset="0.01"/>
<stop offset="0.12" stop-opacity="0.75"/>
<stop offset="1" stop-opacity="0"/>
</linearGradient>
<linearGradient id="paint5_linear_32_41" x1="54774.1" y1="5051.65" x2="54775" y2="4570.91" gradientUnits="userSpaceOnUse">
<stop offset="0.01"/>
<stop offset="0.12" stop-opacity="0.75"/>
<stop offset="1" stop-opacity="0"/>
</linearGradient>
<linearGradient id="paint6_linear_32_41" x1="53460.6" y1="27295.2" x2="53672" y2="17570.7" gradientUnits="userSpaceOnUse">
<stop offset="0.01"/>
<stop offset="0.12" stop-opacity="0.75"/>
<stop offset="1" stop-opacity="0"/>
</linearGradient>
<clipPath id="clip0_32_41">
<rect width="641" height="450" fill="white"/>
</clipPath>
</defs>
</svg>
